# xmcd
#
# Track frame offsets:
#	150
#	20066
#	39246
#	54657
#	78001
#	96110
#	116642
#	128942
#	136598
#	157282
#
# Disc length: 2409 seconds
#
# Revision: 0
# Processed by: cddbd v1.5.2PL0 Copyright (c) Steve Scherf et al.
# Submitted via: EasyCDDAExtractor 10.0.6.1
#
DISCID=7d09670a
DTITLE=eysuhl™ 조관우 - 조관우 [1997 Hkr hkc196] '97 Live Part 1
DYEAR=1997
DGENRE=Pop
TTITLE0=파란앨범
TTITLE1=After The Love Is Gone
TTITLE2=Let's Groove
TTITLE3=Because I Love You Girl
TTITLE4=빗물
TTITLE5=슬픈 연기
TTITLE6=찻집의 고독
TTITLE7=녹슬은 기찻길
TTITLE8=애인 만들기
TTITLE9=늪
EXTD=
EXTT0=
EXTT1=
EXTT2=
EXTT3=
EXTT4=
EXTT5=
EXTT6=
EXTT7=
EXTT8=
EXTT9=
PLAYORDER=
